<svg xmlns="http://www.w3.org/2000/svg" viewBox="0 0 273.46 211.59"><defs><style>.cls-1,.cls-5{opacity:0.5;}.cls-12,.cls-2,.cls-5,.cls-6,.cls-7,.cls-8{fill:none;}.cls-2,.cls-5{stroke:#a3acd6;}.cls-12,.cls-13,.cls-16,.cls-17,.cls-2,.cls-5,.cls-6,.cls-7{stroke-linecap:round;stroke-linejoin:round;}.cls-2{stroke-width:0.91px;}.cls-13,.cls-3{fill:#e5eefd;}.cls-4{fill:#a3acd6;}.cls-5{stroke-width:0.92px;}.cls-6{stroke:#c9d7ed;stroke-width:1.07px;}.cls-7{stroke:#9fc3fd;stroke-width:0.9px;}.cls-9{fill:#93b9f4;}.cls-10,.cls-16{fill:#fff;}.cls-11{fill:#717791;}.cls-12,.cls-13,.cls-16,.cls-17{stroke:#717791;stroke-width:1.08px;}.cls-14,.cls-17{fill:#b8d4ff;}.cls-15{fill:#3f72ba;opacity:0.2;}</style></defs><title>feature-mobile2</title><g id="Layer_2" data-name="Layer 2"><g id="Layer_1-2" data-name="Layer 1"><g id="_18._APP_DEVELOPMENT" data-name="18. APP DEVELOPMENT"><g class="cls-1"><rect class="cls-2" x="164.82" y="3.85" width="31.99" height="26.66" rx="1.55" ry="1.55"/><rect class="cls-2" x="164.82" y="3.85" width="31.99" height="26.66" rx="1.55" ry="1.55"/><line class="cls-3" x1="180.93" y1="12.6" x2="192.74" y2="12.66"/><path class="cls-4" d="M180.93,12.36a40.49,40.49,0,0,1,5.9-.16q3,0,5.9.24a.22.22,0,0,1,0,.43q-3,.17-5.9.18a40.49,40.49,0,0,1-5.9-.22.24.24,0,0,1,0-.48Z"/><line class="cls-3" x1="169.01" y1="12.56" x2="177.53" y2="12.59"/><path class="cls-4" d="M169,12.29a17,17,0,0,1,2.13-.16c.71,0,1.42,0,2.13,0,1.42,0,2.84.07,4.26.18a.27.27,0,0,1,0,.54c-1.42.09-2.84.15-4.26.15-.71,0-1.42,0-2.13,0a16.93,16.93,0,0,1-2.13-.17.27.27,0,0,1,0-.54Z"/><line class="cls-3" x1="180.93" y1="16.68" x2="192.74" y2="16.73"/><path class="cls-4" d="M180.93,16.44a40.51,40.51,0,0,1,5.9-.16q3,0,5.9.24a.22.22,0,0,1,0,.43q-3,.17-5.9.18a40.49,40.49,0,0,1-5.9-.22.24.24,0,0,1,0-.48Z"/><line class="cls-3" x1="169.01" y1="16.64" x2="177.53" y2="16.66"/><path class="cls-4" d="M169,16.37a16.93,16.93,0,0,1,2.13-.16c.71,0,1.42,0,2.13,0,1.42,0,2.84.07,4.26.18a.27.27,0,0,1,0,.54c-1.42.09-2.84.15-4.26.15-.71,0-1.42,0-2.13,0a16.93,16.93,0,0,1-2.13-.17.27.27,0,0,1,0-.54Z"/><line class="cls-3" x1="180.93" y1="20.75" x2="192.74" y2="20.81"/><path class="cls-4" d="M180.93,20.51a40.51,40.51,0,0,1,5.9-.16q3,0,5.9.24a.22.22,0,0,1,0,.43q-3,.17-5.9.18a40.49,40.49,0,0,1-5.9-.22.24.24,0,0,1,0-.48Z"/><line class="cls-3" x1="169.01" y1="20.71" x2="177.53" y2="20.74"/><path class="cls-4" d="M169,20.44a16.93,16.93,0,0,1,2.13-.16c.71,0,1.42,0,2.13,0,1.42,0,2.84.07,4.26.18a.27.27,0,0,1,0,.54c-1.42.09-2.84.15-4.26.15-.71,0-1.42,0-2.13,0A17,17,0,0,1,169,21a.27.27,0,0,1,0-.54Z"/><line class="cls-3" x1="180.93" y1="24.83" x2="187.43" y2="24.86"/><path class="cls-4" d="M180.93,24.59a12.35,12.35,0,0,1,3.25-.17,32.39,32.39,0,0,1,3.25.23.22.22,0,0,1,0,.43,32.39,32.39,0,0,1-3.25.2,12.36,12.36,0,0,1-3.25-.21.25.25,0,0,1,0-.48Z"/><line class="cls-3" x1="169.01" y1="24.79" x2="174.27" y2="24.8"/><path class="cls-4" d="M169,24.52a6.56,6.56,0,0,1,1.31-.16c.44,0,.88,0,1.31,0a25.32,25.32,0,0,1,2.63.17.27.27,0,0,1,0,.54,25.39,25.39,0,0,1-2.63.16c-.44,0-.88,0-1.31,0a6.56,6.56,0,0,1-1.31-.17.28.28,0,0,1,0-.54Z"/><line class="cls-3" x1="168.99" y1="8.98" x2="192.93" y2="9.08"/><path class="cls-4" d="M169,8.77c4-.09,8-.11,12-.12l6,0c2,0,4,0,6,.16a.31.31,0,0,1,0,.61c-2,.14-4,.14-6,.11l-6-.08c-4-.05-8-.1-12-.22a.21.21,0,0,1,0-.42Z"/></g><g class="cls-1"><rect class="cls-2" x="1.96" y="80.39" width="31.99" height="26.66" rx="1.55" ry="1.55"/><rect class="cls-2" x="1.96" y="80.39" width="31.99" height="26.66" rx="1.55" ry="1.55"/><line class="cls-3" x1="18.07" y1="89.14" x2="29.87" y2="89.2"/><path class="cls-4" d="M18.07,88.9a40.48,40.48,0,0,1,5.9-.16q3,0,5.9.24a.22.22,0,0,1,0,.43q-3,.17-5.9.18a40.49,40.49,0,0,1-5.9-.22.24.24,0,0,1,0-.48Z"/><line class="cls-3" x1="6.15" y1="89.1" x2="14.66" y2="89.13"/><path class="cls-4" d="M6.15,88.83a16.93,16.93,0,0,1,2.13-.16c.71,0,1.42,0,2.13,0,1.42,0,2.84.07,4.26.18a.27.27,0,0,1,0,.54c-1.42.09-2.84.15-4.26.15-.71,0-1.42,0-2.13,0a16.93,16.93,0,0,1-2.13-.17.27.27,0,0,1,0-.54Z"/><line class="cls-3" x1="18.07" y1="93.22" x2="29.88" y2="93.27"/><path class="cls-4" d="M18.07,93a40.49,40.49,0,0,1,5.9-.16q3,0,5.9.24a.22.22,0,0,1,0,.43q-3,.17-5.9.18a40.48,40.48,0,0,1-5.9-.22.24.24,0,0,1,0-.48Z"/><line class="cls-3" x1="6.15" y1="93.18" x2="14.67" y2="93.2"/><path class="cls-4" d="M6.15,92.9a17,17,0,0,1,2.13-.16c.71,0,1.42,0,2.13,0,1.42,0,2.84.07,4.26.18a.27.27,0,0,1,0,.54c-1.42.09-2.84.15-4.26.15-.71,0-1.42,0-2.13,0a16.93,16.93,0,0,1-2.13-.17.27.27,0,0,1,0-.54Z"/><line class="cls-3" x1="18.07" y1="97.29" x2="29.88" y2="97.35"/><path class="cls-4" d="M18.07,97.05a40.51,40.51,0,0,1,5.9-.16q3,0,5.9.24a.22.22,0,0,1,0,.43q-3,.17-5.9.18a40.49,40.49,0,0,1-5.9-.22.24.24,0,0,1,0-.48Z"/><line class="cls-3" x1="6.15" y1="97.25" x2="14.67" y2="97.28"/><path class="cls-4" d="M6.15,97a16.93,16.93,0,0,1,2.13-.16c.71,0,1.42,0,2.13,0,1.42,0,2.84.07,4.26.18a.27.27,0,0,1,0,.54c-1.42.09-2.84.15-4.26.15-.71,0-1.42,0-2.13,0a17,17,0,0,1-2.13-.17.27.27,0,0,1,0-.54Z"/><line class="cls-3" x1="18.07" y1="101.36" x2="24.57" y2="101.4"/><path class="cls-4" d="M18.07,101.13a12.36,12.36,0,0,1,3.25-.17,32.39,32.39,0,0,1,3.25.23.22.22,0,0,1,0,.43,32.35,32.35,0,0,1-3.25.2,12.36,12.36,0,0,1-3.25-.21.25.25,0,0,1,0-.48Z"/><line class="cls-3" x1="6.15" y1="101.33" x2="11.41" y2="101.34"/><path class="cls-4" d="M6.15,101.05a6.56,6.56,0,0,1,1.31-.16c.44,0,.88,0,1.31,0a25.39,25.39,0,0,1,2.63.17.27.27,0,0,1,0,.54,25.36,25.36,0,0,1-2.63.16c-.44,0-.88,0-1.31,0a6.56,6.56,0,0,1-1.31-.17.28.28,0,0,1,0-.54Z"/><line class="cls-3" x1="6.13" y1="85.52" x2="30.07" y2="85.62"/><path class="cls-4" d="M6.13,85.31c4-.09,8-.11,12-.12l6,0c2,0,4,0,6,.16a.31.31,0,0,1,0,.61c-2,.14-4,.14-6,.11l-6-.08c-4-.05-8-.1-12-.22a.21.21,0,0,1,0-.42Z"/></g><path class="cls-3" d="M240.15,168.69c-1.37,14-9.29,28-11.32,29.61s-5.72.74-8.27.74H18.32l-.12-.21c-5-8.78-10.72-17.31-13.57-27.14C-3.3,144.31,22,125.8,38.31,108.28c9.35-10,10.06-24.47,18.16-35.18,11.08-14.67,29.83-22.31,47.72-23.5,20.56-1.37,38,6,50.54,22.7C165,86,170.87,107.21,187,115.46c5.79,3,12.5,3.32,18.78,5C226.26,126,242.25,147.15,240.15,168.69Z"/><rect class="cls-5" x="4.95" y="117.33" width="111.7" height="4.41" rx="1.7" ry="1.7"/><g class="cls-1"><path class="cls-4" d="M56.51,140.17a17.66,17.66,0,0,1-2.86,1.22l-2.92,1-5.84,2.1-11.68,4.19L21.5,152.86l-5.85,2.06a37.67,37.67,0,0,1-5.94,1.83.16.16,0,0,1-.11-.29,37.66,37.66,0,0,1,5.75-2.34L21.2,152l11.68-4.21,11.7-4.15,5.85-2.07,2.93-1a17.66,17.66,0,0,1,3-.86.26.26,0,0,1,.17.49Z"/></g><g class="cls-1"><path class="cls-4" d="M14.77,124a38.85,38.85,0,0,1,5.09,1.37l5,1.63,10,3.26,10,3.35,5,1.67a38.81,38.81,0,0,1,4.91,1.92.19.19,0,0,1-.12.37,38.81,38.81,0,0,1-5.09-1.37l-5-1.62-10-3.23-10-3.32-5-1.66a38.84,38.84,0,0,1-4.91-1.92.24.24,0,0,1,.15-.44Z"/></g><line class="cls-5" x1="7.03" y1="198.81" x2="7.03" y2="121.7"/><g class="cls-1"><path class="cls-4" d="M53.62,182.28c-3.53,1.56-7.18,2.78-10.8,4.12l-10.85,4-10.88,3.9-5.44,1.95A47.76,47.76,0,0,1,10.14,198a.25.25,0,0,1-.17-.46,47.75,47.75,0,0,1,5.36-2.18l5.43-2,10.86-3.94,10.88-3.88c3.63-1.27,7.23-2.66,10.94-3.72a.25.25,0,0,1,.17.47Z"/></g><g class="cls-1"><path class="cls-4" d="M11,158.7c2,.66,3.86,1.47,5.75,2.28l5.69,2.42,11.38,4.84,11.35,4.9,5.67,2.45a46.08,46.08,0,0,1,5.58,2.67.27.27,0,0,1-.21.49,46.1,46.1,0,0,1-5.77-2.22l-5.68-2.44-11.36-4.87L22,164.29l-5.67-2.47c-1.89-.82-3.78-1.64-5.61-2.61a.28.28,0,0,1,.22-.51Z"/></g><g class="cls-1"><path class="cls-4" d="M10.48,181a33.82,33.82,0,0,1,6.25,1.87l6.14,2.18,12.28,4.37,12.26,4.43,12.24,4.49-.61.43V121.7a.46.46,0,1,1,.92,0v77.11a.46.46,0,0,1-.46.46l-.16,0L47,194.91l-12.27-4.4L22.53,186l-6.12-2.23a33.83,33.83,0,0,1-6-2.54.13.13,0,0,1,.09-.24Z"/></g><g class="cls-1"><path class="cls-4" d="M56.32,158.85a52.16,52.16,0,0,1-5.52,2.64l-5.61,2.45L34,168.83l-11.25,4.81a122,122,0,0,1-11.37,4.53.16.16,0,0,1-.13-.3,122,122,0,0,1,11.1-5.15l11.22-4.87,11.25-4.79,5.63-2.39a52.14,52.14,0,0,1,5.71-2.2.21.21,0,0,1,.16.38Z"/></g><g class="cls-1"><path class="cls-4" d="M12.15,140.43a40.24,40.24,0,0,1,5.34,1.63l5.26,1.86,10.51,3.73,10.49,3.81,5.24,1.9a51.5,51.5,0,0,1,5.17,2.1.2.2,0,0,1-.13.37,51.53,51.53,0,0,1-5.33-1.66l-5.26-1.85-10.52-3.71-10.5-3.78L17.17,143A40.22,40.22,0,0,1,12,140.83a.21.21,0,0,1,.14-.4Z"/></g><g class="cls-1"><path class="cls-4" d="M52,124.48a49.53,49.53,0,0,1-5.11,1.91l-5.17,1.72-10.34,3.44L21,134.9l-5.18,1.68a36.24,36.24,0,0,1-5.27,1.4.16.16,0,0,1-.1-.3,36.24,36.24,0,0,1,5.08-2L20.66,134,31,130.5l10.36-3.37,5.18-1.69a49.53,49.53,0,0,1,5.25-1.49.28.28,0,0,1,.18.54Z"/></g><g class="cls-1"><path class="cls-4" d="M107.21,182a38.41,38.41,0,0,1-5.38,2.2l-5.46,2-10.93,3.94-11,3.88c-3.66,1.26-7.26,2.69-11,3.67a.26.26,0,0,1-.17-.48c3.52-1.64,7.21-2.84,10.83-4.21l10.9-4L96,185l5.47-2a38.41,38.41,0,0,1,5.55-1.75.37.37,0,0,1,.25.68Z"/></g><g class="cls-1"><path class="cls-4" d="M64,159.12a39.45,39.45,0,0,1,5.75,2.12l5.63,2.4,11.25,4.79,11.22,4.87,5.61,2.44a46.81,46.81,0,0,1,5.52,2.64.24.24,0,0,1-.19.45,46.82,46.82,0,0,1-5.71-2.2l-5.63-2.4-11.25-4.8L75,164.55l-5.61-2.44a39.46,39.46,0,0,1-5.49-2.72.15.15,0,0,1,.11-.27Z"/></g><g class="cls-1"><path class="cls-4" d="M107.17,140.84c-1.74.76-3.52,1.39-5.3,2l-5.34,1.91-10.68,3.83-10.7,3.78-5.35,1.89A43.27,43.27,0,0,1,64.4,156a.21.21,0,0,1-.14-.39,43.29,43.29,0,0,1,5.27-2.1l5.34-1.92,10.67-3.84,10.69-3.79,5.34-1.9c1.78-.63,3.56-1.27,5.39-1.78a.31.31,0,0,1,.21.59Z"/></g><g class="cls-1"><path class="cls-4" d="M67.5,124.15c3.52.78,6.89,2,10.32,3.11l10.25,3.31,10.23,3.38c3.4,1.16,6.85,2.15,10.17,3.56a.32.32,0,0,1-.2.61c-3.51-.83-6.87-2.08-10.3-3.17l-10.23-3.36-10.21-3.43c-3.39-1.18-6.85-2.17-10.14-3.63a.2.2,0,0,1,.13-.38Z"/></g><g class="cls-1"><path class="cls-4" d="M111.42,198.81l-.07-18v-45a75,75,0,0,1,.27-9,.23.23,0,0,1,.45,0,75,75,0,0,1,.27,9v45l-.07,18a.46.46,0,0,1-.92,0Z"/></g><g class="cls-1"><path class="cls-4" d="M64.38,181.45c1.94.49,3.81,1.14,5.68,1.82l5.62,2,11.23,4,11.21,4.06,5.6,2a42.45,42.45,0,0,1,5.52,2.26.25.25,0,0,1-.17.46,42.45,42.45,0,0,1-5.69-1.78l-5.61-2-11.22-4-11.2-4.08-5.6-2c-1.87-.68-3.73-1.36-5.53-2.22a.25.25,0,0,1,.17-.46Z"/></g><g class="cls-1"><path class="cls-4" d="M106.21,160a34.29,34.29,0,0,1-5.14,2.48l-5.24,2.26-10.48,4.52-10.51,4.46L69.59,176c-1.75.74-3.51,1.47-5.33,2a.22.22,0,0,1-.17-.41c1.67-.93,3.41-1.7,5.15-2.46l5.23-2.28,10.46-4.55,10.49-4.49,5.25-2.24a34.28,34.28,0,0,1,5.34-2,.25.25,0,0,1,.2.46Z"/></g><g class="cls-1"><path class="cls-4" d="M65.43,140.76a42.93,42.93,0,0,1,5.48,1.63l5.38,1.9,10.76,3.8L97.79,152c3.57,1.31,7.18,2.53,10.67,4.07a.27.27,0,0,1-.18.5c-3.68-1-7.24-2.34-10.84-3.59l-10.77-3.79-10.74-3.87-5.37-1.94a43,43,0,0,1-5.27-2.2.21.21,0,0,1,.14-.39Z"/></g><g class="cls-1"><path class="cls-4" d="M104.78,124A41.24,41.24,0,0,1,99.63,126l-5.2,1.76L84,131.23,73.6,134.7l-5.21,1.73A44.8,44.8,0,0,1,63.12,138a.25.25,0,0,1-.16-.47,44.77,44.77,0,0,1,5.14-1.94l5.2-1.76,10.4-3.53,10.42-3.47,5.21-1.74a41.26,41.26,0,0,1,5.27-1.57.28.28,0,0,1,.18.52Z"/></g><rect class="cls-5" x="87.73" y="117.33" width="111.7" height="4.41" rx="1.7" ry="1.7"/><g class="cls-1"><path class="cls-4" d="M139.29,140.17a17.66,17.66,0,0,1-2.86,1.22l-2.92,1-5.84,2.1L116,148.73l-11.71,4.13-5.85,2.06a37.67,37.67,0,0,1-5.94,1.83.16.16,0,0,1-.11-.29,37.66,37.66,0,0,1,5.75-2.34L104,152l11.68-4.21,11.7-4.15,5.85-2.07,2.93-1a17.66,17.66,0,0,1,3-.86.26.26,0,0,1,.17.49Z"/></g><g class="cls-1"><path class="cls-4" d="M97.55,124a38.84,38.84,0,0,1,5.09,1.37l5,1.63,10,3.26,10,3.35,5,1.67a38.81,38.81,0,0,1,4.91,1.92.19.19,0,0,1-.12.37,38.81,38.81,0,0,1-5.09-1.37l-5-1.62-10-3.23-10-3.32-5-1.66a38.85,38.85,0,0,1-4.91-1.92.24.24,0,0,1,.15-.44Z"/></g><line class="cls-5" x1="89.81" y1="198.81" x2="89.81" y2="121.7"/><g class="cls-1"><path class="cls-4" d="M136.39,182.28c-3.53,1.56-7.18,2.78-10.8,4.12l-10.85,4-10.88,3.9-5.44,1.95A47.76,47.76,0,0,1,92.91,198a.25.25,0,0,1-.17-.46,47.76,47.76,0,0,1,5.36-2.18l5.43-2,10.86-3.94,10.88-3.88c3.63-1.27,7.23-2.66,10.94-3.72a.25.25,0,0,1,.17.47Z"/></g><g class="cls-1"><path class="cls-4" d="M93.74,158.7c2,.66,3.86,1.47,5.75,2.28l5.69,2.42,11.38,4.84,11.35,4.9,5.67,2.45a46.09,46.09,0,0,1,5.58,2.67.27.27,0,0,1-.21.49,46.1,46.1,0,0,1-5.77-2.22l-5.68-2.44-11.36-4.87-11.34-4.93-5.67-2.47c-1.89-.82-3.78-1.64-5.61-2.61a.28.28,0,0,1,.22-.51Z"/></g><g class="cls-1"><path class="cls-4" d="M93.26,181a33.82,33.82,0,0,1,6.25,1.87l6.14,2.18,12.28,4.37,12.26,4.43,12.24,4.49-.61.43V121.7a.46.46,0,1,1,.92,0v77.11a.46.46,0,0,1-.46.46l-.16,0-12.29-4.34-12.27-4.4L105.31,186l-6.12-2.23a33.82,33.82,0,0,1-6-2.54.13.13,0,0,1,.09-.24Z"/></g><g class="cls-1"><path class="cls-4" d="M139.09,158.85a52.16,52.16,0,0,1-5.52,2.64L128,163.94l-11.21,4.89-11.25,4.81a122,122,0,0,1-11.37,4.53.16.16,0,0,1-.13-.3,122,122,0,0,1,11.1-5.15l11.22-4.87,11.25-4.79,5.63-2.39a52.14,52.14,0,0,1,5.71-2.2.21.21,0,0,1,.16.38Z"/></g><g class="cls-1"><path class="cls-4" d="M94.92,140.43a40.25,40.25,0,0,1,5.34,1.63l5.26,1.86L116,147.66l10.49,3.81,5.24,1.9a51.5,51.5,0,0,1,5.17,2.1.2.2,0,0,1-.13.37,51.53,51.53,0,0,1-5.33-1.66l-5.26-1.85-10.52-3.71-10.5-3.78L99.94,143a40.22,40.22,0,0,1-5.17-2.12.21.21,0,0,1,.14-.4Z"/></g><g class="cls-1"><path class="cls-4" d="M134.73,124.48a49.53,49.53,0,0,1-5.11,1.91l-5.17,1.72-10.34,3.44-10.37,3.36-5.18,1.68a36.24,36.24,0,0,1-5.27,1.4.16.16,0,0,1-.1-.3,36.24,36.24,0,0,1,5.08-2l5.17-1.73,10.34-3.46,10.36-3.37,5.18-1.69a49.53,49.53,0,0,1,5.25-1.49.28.28,0,0,1,.18.54Z"/></g><g class="cls-1"><path class="cls-4" d="M190,182a38.41,38.41,0,0,1-5.38,2.2l-5.46,2-10.93,3.94-11,3.88c-3.66,1.26-7.26,2.69-11,3.67a.26.26,0,0,1-.17-.48c3.52-1.64,7.21-2.84,10.83-4.21l10.9-4L178.73,185l5.47-2a38.41,38.41,0,0,1,5.55-1.75.37.37,0,0,1,.25.68Z"/></g><g class="cls-1"><path class="cls-4" d="M146.77,159.12a39.45,39.45,0,0,1,5.75,2.12l5.63,2.4,11.25,4.79,11.22,4.87,5.61,2.44a46.81,46.81,0,0,1,5.52,2.64.24.24,0,0,1-.19.45,46.82,46.82,0,0,1-5.71-2.2l-5.63-2.4L169,169.43l-11.22-4.88-5.61-2.44a39.46,39.46,0,0,1-5.49-2.72.15.15,0,0,1,.11-.27Z"/></g><g class="cls-1"><path class="cls-4" d="M189.95,140.84c-1.74.76-3.52,1.39-5.3,2l-5.34,1.91-10.68,3.83-10.7,3.78-5.35,1.89a43.27,43.27,0,0,1-5.41,1.71.21.21,0,0,1-.14-.39,43.29,43.29,0,0,1,5.27-2.1l5.34-1.92,10.67-3.84L179,143.93l5.34-1.9c1.78-.63,3.56-1.27,5.39-1.78a.31.31,0,0,1,.21.59Z"/></g><g class="cls-1"><path class="cls-4" d="M150.28,124.15c3.52.78,6.89,2,10.32,3.11l10.25,3.31,10.23,3.38c3.4,1.16,6.85,2.15,10.17,3.56a.32.32,0,0,1-.2.61c-3.51-.83-6.87-2.08-10.3-3.17l-10.23-3.36-10.21-3.43c-3.39-1.18-6.85-2.17-10.14-3.63a.2.2,0,0,1,.13-.38Z"/></g><g class="cls-1"><path class="cls-4" d="M194.2,198.81l-.07-18v-45a74.94,74.94,0,0,1,.27-9,.23.23,0,0,1,.45,0,75,75,0,0,1,.27,9v45l-.07,18a.46.46,0,0,1-.92,0Z"/></g><g class="cls-1"><path class="cls-4" d="M147.15,181.45c1.94.49,3.81,1.14,5.68,1.82l5.62,2,11.23,4,11.21,4.06,5.6,2A42.45,42.45,0,0,1,192,197.6a.25.25,0,0,1-.17.46,42.45,42.45,0,0,1-5.69-1.78l-5.61-2-11.22-4-11.2-4.08-5.6-2c-1.87-.68-3.73-1.36-5.53-2.22a.25.25,0,0,1,.17-.46Z"/></g><g class="cls-1"><path class="cls-4" d="M189,160a34.29,34.29,0,0,1-5.14,2.48l-5.24,2.26-10.48,4.52-10.51,4.46L152.37,176c-1.75.74-3.51,1.47-5.33,2a.22.22,0,0,1-.17-.41c1.67-.93,3.41-1.7,5.15-2.46l5.23-2.28,10.46-4.55,10.49-4.49,5.25-2.24a34.28,34.28,0,0,1,5.34-2,.25.25,0,0,1,.2.46Z"/></g><g class="cls-1"><path class="cls-4" d="M148.21,140.76a42.93,42.93,0,0,1,5.48,1.63l5.38,1.9,10.76,3.8L180.57,152c3.57,1.31,7.18,2.53,10.67,4.07a.27.27,0,0,1-.18.5c-3.68-1-7.24-2.34-10.84-3.59l-10.77-3.79-10.74-3.87-5.37-1.94a43,43,0,0,1-5.27-2.2.21.21,0,0,1,.14-.39Z"/></g><g class="cls-1"><path class="cls-4" d="M187.55,124a41.24,41.24,0,0,1-5.15,1.93l-5.2,1.76-10.4,3.52-10.42,3.46-5.21,1.73a44.8,44.8,0,0,1-5.27,1.56.25.25,0,0,1-.16-.47,44.78,44.78,0,0,1,5.14-1.94l5.2-1.76,10.4-3.53,10.42-3.47,5.21-1.74a41.26,41.26,0,0,1,5.27-1.57.28.28,0,0,1,.18.52Z"/></g><circle class="cls-6" cx="204.13" cy="29.01" r="1.61"/><circle class="cls-7" cx="200.15" cy="50.65" r="1.61"/><path class="cls-8" d="M109.18,157.22"/><path class="cls-9" d="M170.14,115.22c0,.53-.06,1.07-.09,1.6"/><path class="cls-10" d="M170.19,40.56v139.2a19.32,19.32,0,0,1-19.32,19.32H92.39a19.32,19.32,0,0,1-18.54-13.87c-.51-1.73-.78-3.56-.78,19.72V65.74c0-25.33.08-27.27.26-28.32a.57.57,0,0,1,0-.12,19.32,19.32,0,0,1,19-16.06h58.48a19.3,19.3,0,0,1,19,16.06A18.15,18.15,0,0,1,170.19,40.56Z"/><path class="cls-5" d="M103.57,64.78V66.2A4.58,4.58,0,0,1,99,70.78H96.75"/><path class="cls-5" d="M86,70.77a4.58,4.58,0,0,1-4.24-4.56V53.82a4.58,4.58,0,0,1,4.58-4.58H99a4.58,4.58,0,0,1,4.58,4.58v6.47"/><path class="cls-5" d="M130.71,64.78V66.2a4.58,4.58,0,0,1-4.58,4.58h-2.24"/><path class="cls-5" d="M113.11,70.77a4.58,4.58,0,0,1-4.24-4.56V53.82a4.58,4.58,0,0,1,4.58-4.58h12.68a4.58,4.58,0,0,1,4.58,4.58v6.47"/><path class="cls-5" d="M159.72,64.78V66.2a4.58,4.58,0,0,1-4.58,4.58H152.9"/><path class="cls-5" d="M142.13,70.77a4.58,4.58,0,0,1-4.24-4.56V53.82a4.58,4.58,0,0,1,4.58-4.58h12.68a4.58,4.58,0,0,1,4.58,4.58v6.47"/><path class="cls-5" d="M103.57,95v1.42A4.58,4.58,0,0,1,99,101H96.75"/><path class="cls-5" d="M86,101a4.58,4.58,0,0,1-4.24-4.56V84a4.58,4.58,0,0,1,4.58-4.58H99A4.58,4.58,0,0,1,103.57,84v6.47"/><path class="cls-5" d="M130.71,95v1.42a4.58,4.58,0,0,1-4.58,4.58h-2.24"/><g class="cls-1"><path class="cls-4" d="M113.08,101.44a5.06,5.06,0,0,1-3.71-2,5.12,5.12,0,0,1-.89-2,6,6,0,0,1-.1-1.08v-1l0-7.93v-2c0-.67,0-1.29.05-2a5,5,0,0,1,4.27-4.31,18,18,0,0,1,2,0,29,29,0,0,1,4,.18.25.25,0,0,1,0,.5,29,29,0,0,1-4,.18,17.85,17.85,0,0,0-1.92.05,4.12,4.12,0,0,0-3.5,3.57c-.06.56,0,1.28,0,1.92v2l0,7.93v1a5,5,0,0,0,.08.89,4.12,4.12,0,0,0,3.71,3.3.46.46,0,0,1-.07.92Z"/></g><path class="cls-5" d="M159.72,95v1.42a4.58,4.58,0,0,1-4.58,4.58H152.9"/><path class="cls-5" d="M142.13,101a4.58,4.58,0,0,1-4.24-4.56V84a4.58,4.58,0,0,1,4.58-4.58h12.68A4.58,4.58,0,0,1,159.72,84v6.47"/><path class="cls-5" d="M103.57,124.37v1.42A4.58,4.58,0,0,1,99,130.37H96.75"/><path class="cls-5" d="M86,130.36a4.58,4.58,0,0,1-4.24-4.56V113.41a4.58,4.58,0,0,1,4.58-4.58H99a4.58,4.58,0,0,1,4.58,4.58v6.47"/><path class="cls-5" d="M103.57,154.6V156A4.58,4.58,0,0,1,99,160.59H96.75"/><path class="cls-5" d="M86,160.58A4.58,4.58,0,0,1,81.74,156V143.64a4.58,4.58,0,0,1,4.58-4.58H99a4.58,4.58,0,0,1,4.58,4.58v6.47"/><path class="cls-5" d="M159.72,124.37v1.42a4.58,4.58,0,0,1-4.58,4.58H152.9"/><path class="cls-5" d="M142.13,130.36a4.58,4.58,0,0,1-4.24-4.56V113.41a4.58,4.58,0,0,1,4.58-4.58h12.68a4.58,4.58,0,0,1,4.58,4.58v6.47"/><path class="cls-3" d="M171.31,177.51v2.59A19.32,19.32,0,0,1,152,199.42H93.51A19.32,19.32,0,0,1,75,185.55v-8Z"/><path class="cls-3" d="M169.91,37.31H73.34a19.32,19.32,0,0,1,19-16.06h58.48A19.3,19.3,0,0,1,169.91,37.31Z"/><path class="cls-11" d="M72.53,96.35a2.59,2.59,0,0,1,.14-1,.41.41,0,0,1,.79,0,2.59,2.59,0,0,1,.14,1,.54.54,0,0,1-1.07,0Z"/><path class="cls-11" d="M170.58,98.24c.43,11.27.27,22.54.3,33.81v46.49a25.1,25.1,0,0,1-.24,4.32,20,20,0,0,1-17.71,16.8c-.72.07-1.46.1-2.18.1H93.69a26.33,26.33,0,0,1-4.32-.23A20,20,0,0,1,72.5,181.91c-.08-.72-.11-1.45-.12-2.18V118.44a63.5,63.5,0,0,1,.34-8.45.34.34,0,0,1,.67,0,63.5,63.5,0,0,1,.34,8.45v61.28c0,.68,0,1.36.11,2a18.67,18.67,0,0,0,11.8,15.38,18.48,18.48,0,0,0,3.93,1,25,25,0,0,0,4.11.21h54.94c1.42,0,2.82,0,4.15-.1a18.71,18.71,0,0,0,7.67-2.56,18.63,18.63,0,0,0,8.82-13.1,23.73,23.73,0,0,0,.22-4.11V132.05c0-11.27-.13-22.54.3-33.81a.39.39,0,0,1,.77,0Z"/><path class="cls-11" d="M72.68,91.3,72.41,78c-.06-4.45,0-8.9,0-13.34V41.26a22.25,22.25,0,0,1,.19-3.42A20,20,0,0,1,91.33,20.56l26.72,0h26.69l6.69,0a19.76,19.76,0,0,1,6.75,1.37,20,20,0,0,1,12.46,15.44,21.81,21.81,0,0,1,.26,3.43V77.47a42.56,42.56,0,0,1-.34,6.67.34.34,0,0,1-.67,0,42.56,42.56,0,0,1-.34-6.67V40.78a20.37,20.37,0,0,0-.25-3.21,18.6,18.6,0,0,0-11.59-14.32A18.31,18.31,0,0,0,151.39,22h-60A18.61,18.61,0,0,0,73.94,38a20.72,20.72,0,0,0-.18,3.23V64.61c0,4.45,0,8.9,0,13.34L73.45,91.3a.39.39,0,0,1-.77,0Z"/><path class="cls-11" d="M115.11,29.15a54.41,54.41,0,0,1,6.81-.25c2.27,0,4.54.08,6.81.25a.42.42,0,0,1,0,.85c-2.27.17-4.54.23-6.81.25a54.41,54.41,0,0,1-6.81-.25.43.43,0,0,1,0-.85Z"/><path class="cls-11" d="M127.09,191.53a5.88,5.88,0,0,1-3.31,2.65,6.52,6.52,0,0,1-4.34-.17,6.66,6.66,0,0,1-2.26-10.95,6.63,6.63,0,0,1,3.85-1.86,6.46,6.46,0,0,1,4.13.89,6.21,6.21,0,0,1,2.58,3.23.24.24,0,0,1-.45.19,5.9,5.9,0,0,0-6.12-3.23A5.45,5.45,0,0,0,120,192.71a6.09,6.09,0,0,0,6.57-1.6.35.35,0,0,1,.57.42Z"/><path class="cls-11" d="M160.28,177.16c1.61-.2,3.22-.28,4.83-.34s3.22-.08,4.83,0a.69.69,0,0,1,0,1.38c-1.61.05-3.22,0-4.83,0s-3.22-.14-4.83-.34a.32.32,0,0,1,0-.64Z"/><path class="cls-11" d="M143.61,177.2a4.86,4.86,0,0,1,1.34-.28,1.89,1.89,0,0,1,1.34.2.43.43,0,0,1,.12.6.44.44,0,0,1-.12.12,1.89,1.89,0,0,1-1.34.2,4.86,4.86,0,0,1-1.34-.28.29.29,0,0,1,0-.55Z"/><path class="cls-11" d="M73.19,176.79q15.83-.12,31.65-.08l15.83.07c5.28,0,10.55,0,15.83.44a.27.27,0,0,1,0,.53c-5.28.47-10.55.4-15.83.44l-15.83.07q-15.83,0-31.65-.08a.69.69,0,0,1,0-1.38Z"/><path class="cls-11" d="M84.18,37.21c7.15-.36,14.29-.34,21.44-.35l21.44,0,21.44,0,21.44,0a.69.69,0,0,1,0,1.38l-21.44,0-21.44,0-21.44,0c-7.15,0-14.29,0-21.44-.35a.31.31,0,0,1,0-.61Z"/><line class="cls-3" x1="228.95" y1="199.8" x2="233.66" y2="199.8"/><path class="cls-11" d="M228.95,199.47a10.76,10.76,0,0,1,2.35-.17,21.52,21.52,0,0,1,2.35.12.38.38,0,0,1,0,.75,21.49,21.49,0,0,1-2.35.12,10.76,10.76,0,0,1-2.35-.17.33.33,0,0,1,0-.65Z"/><line class="cls-3" x1="13.96" y1="199.8" x2="225.49" y2="199.8"/><path class="cls-11" d="M14,199.49c17.63-.23,35.25-.15,52.88-.17l52.88,0,52.88,0c17.63,0,35.25-.06,52.88.12a.4.4,0,0,1,0,.81c-17.63.19-35.25.13-52.88.12l-52.88,0-52.88,0c-17.63,0-35.25.06-52.88-.17a.31.31,0,0,1,0-.62Z"/><line class="cls-3" x1="8.76" y1="199.8" x2="9.45" y2="199.8"/><path class="cls-11" d="M8.76,199.34H9.1a2.72,2.72,0,0,1,.34.06.4.4,0,0,1,0,.79,2.72,2.72,0,0,1-.34.06H8.76a.46.46,0,0,1,0-.92Z"/><line class="cls-3" x1="0.29" y1="199.8" x2="3.72" y2="199.8"/><path class="cls-11" d="M.29,199.46A14.85,14.85,0,0,1,2,199.34a8.74,8.74,0,0,1,1.71.09.38.38,0,0,1,0,.74,8.76,8.76,0,0,1-1.71.09,14.82,14.82,0,0,1-1.71-.13.34.34,0,0,1,0-.67Z"/><line class="cls-3" x1="95.37" y1="211.05" x2="161.39" y2="211.05"/><path class="cls-11" d="M95.37,210.74c2.75-.14,5.5-.16,8.25-.16h8.25l16.5,0,16.5,0c5.5,0,11-.1,16.5.12a.4.4,0,0,1,0,.81c-5.5.22-11,.1-16.5.12l-16.5,0-16.5,0h-8.25c-2.75,0-5.5,0-8.25-.16a.31.31,0,0,1,0-.62Z"/><line class="cls-3" x1="68.2" y1="211.05" x2="85.12" y2="211.05"/><path class="cls-11" d="M68.2,210.71c2.82-.09,5.64-.08,8.46-.12,1.41,0,2.82,0,4.23,0s2.82,0,4.23.07a.37.37,0,0,1,0,.74c-1.41.05-2.82.07-4.23.07s-2.82,0-4.23,0c-2.82,0-5.64,0-8.46-.12a.33.33,0,0,1,0-.67Z"/><g class="cls-1"><path class="cls-4" d="M5.41,44.66a10,10,0,0,0,.12,1.4,12.78,12.78,0,0,1,.1,1.38c0,.55-.14,1.21-1.35,1.23V49.8c1.21,0,1.35.73,1.35,1.23a12.47,12.47,0,0,1-.1,1.37,9.76,9.76,0,0,0-.12,1.38c0,1.75,1.07,2.37,2.58,2.37h.5V54.92H8.18c-.87,0-1.21-.5-1.21-1.37a6.17,6.17,0,0,1,.12-1.09c0-.38.1-.8.1-1.26a1.69,1.69,0,0,0-1.38-2v0a1.68,1.68,0,0,0,1.38-1.94c0-.45-.07-.87-.1-1.25A6.17,6.17,0,0,1,7,44.94c0-.85.31-1.35,1.21-1.35h.31V42.34H8C6.45,42.34,5.41,43,5.41,44.66Z"/><path class="cls-4" d="M22.78,49.8V48.68c-1.21,0-1.35-.67-1.35-1.23a12.79,12.79,0,0,1,.1-1.38,10,10,0,0,0,.12-1.4c0-1.63-1-2.32-2.58-2.32h-.5v1.25h.31c.9,0,1.21.5,1.21,1.35A6.17,6.17,0,0,1,20,46c0,.38-.1.8-.1,1.25a1.68,1.68,0,0,0,1.38,1.94v0a1.69,1.69,0,0,0-1.38,2c0,.47.07.88.1,1.26a6.17,6.17,0,0,1,.12,1.09c0,.86-.35,1.37-1.21,1.37h-.31v1.23h.5c1.51,0,2.58-.62,2.58-2.37a9.76,9.76,0,0,0-.12-1.38,12.48,12.48,0,0,1-.1-1.37C21.43,50.53,21.56,49.82,22.78,49.8Z"/><path class="cls-4" d="M13.52,51.54a1,1,0,1,0,.93,1A.9.9,0,0,0,13.52,51.54Z"/><polygon class="cls-4" points="14.1 50.77 14.32 45.03 12.72 45.03 12.95 50.77 14.1 50.77"/></g><g class="cls-1"><path class="cls-4" d="M136,2.32a10,10,0,0,0,.12,1.4,12.78,12.78,0,0,1,.1,1.38c0,.55-.14,1.21-1.35,1.23V7.46c1.21,0,1.35.73,1.35,1.23a12.47,12.47,0,0,1-.1,1.37,9.76,9.76,0,0,0-.12,1.38c0,1.75,1.07,2.37,2.58,2.37h.5V12.58h-.31c-.87,0-1.21-.5-1.21-1.37a6.17,6.17,0,0,1,.12-1.09c0-.38.1-.8.1-1.26a1.69,1.69,0,0,0-1.38-2v0a1.68,1.68,0,0,0,1.38-1.94c0-.45-.07-.87-.1-1.25a6.17,6.17,0,0,1-.12-1.09c0-.85.31-1.35,1.21-1.35h.31V0h-.5C137.09,0,136,.69,136,2.32Z"/><path class="cls-4" d="M153.42,7.46V6.33c-1.21,0-1.35-.67-1.35-1.23a12.79,12.79,0,0,1,.1-1.38,10,10,0,0,0,.12-1.4c0-1.63-1-2.32-2.58-2.32h-.5V1.25h.31c.9,0,1.21.5,1.21,1.35a6.17,6.17,0,0,1-.12,1.09c0,.38-.1.8-.1,1.25a1.68,1.68,0,0,0,1.38,1.94v0a1.69,1.69,0,0,0-1.38,2c0,.47.07.88.1,1.26a6.17,6.17,0,0,1,.12,1.09c0,.86-.35,1.37-1.21,1.37h-.31v1.23h.5c1.51,0,2.58-.62,2.58-2.37a9.76,9.76,0,0,0-.12-1.38,12.48,12.48,0,0,1-.1-1.37C152.07,8.19,152.2,7.48,153.42,7.46Z"/><path class="cls-4" d="M144.16,9.2a.9.9,0,0,0-.92,1,.89.89,0,0,0,.92,1,.9.9,0,0,0,.93-1A.9.9,0,0,0,144.16,9.2Z"/><polygon class="cls-4" points="144.74 8.43 144.96 2.69 143.37 2.69 143.59 8.43 144.74 8.43"/></g><g class="cls-1"><path class="cls-4" d="M233.82,92.52c1.21,0,1.35-.67,1.35-1.23a12.78,12.78,0,0,0-.1-1.38,10,10,0,0,1-.12-1.4c0-1.63,1-2.32,2.58-2.32h.5v1.25h-.31c-.9,0-1.21.5-1.21,1.35a6.17,6.17,0,0,0,.12,1.09c0,.38.1.8.1,1.25a1.68,1.68,0,0,1-1.38,1.94v0a1.69,1.69,0,0,1,1.38,2c0,.47-.07.88-.1,1.26a6.17,6.17,0,0,0-.12,1.09c0,.87.35,1.37,1.21,1.37H238V100h-.5c-1.51,0-2.58-.62-2.58-2.37a9.76,9.76,0,0,1,.12-1.38,12.47,12.47,0,0,0,.1-1.37c0-.5-.14-1.21-1.35-1.23Z"/></g><rect class="cls-12" x="199.93" y="70.05" width="13.94" height="120.75"/><rect class="cls-13" x="194.22" y="64.5" width="25.53" height="8.06"/><rect class="cls-13" x="189.69" y="190.62" width="34.09" height="9.07"/><polygon class="cls-12" points="256.52 50.4 125.87 50.4 117.31 64.17 256.52 64.17 256.52 50.4"/><line class="cls-12" x1="141.81" y1="50.4" x2="133.25" y2="64.17"/><path class="cls-11" d="M155.27,54.51A12.86,12.86,0,0,1,154,57.12l-1.49,2.47c-1,1.64-2,3.27-3.11,4.87a.54.54,0,0,1-.92-.57c1-1.67,2-3.32,3-4.94L153,56.51a12.86,12.86,0,0,1,1.78-2.29.29.29,0,0,1,.48.3Z"/><line class="cls-12" x1="170.4" y1="55.17" x2="164.8" y2="64.17"/><path class="cls-11" d="M189.57,50.68c-.88,1.56-1.81,3.08-2.75,4.59l-1.44,2.25a8.65,8.65,0,0,1-1.67,2.11.3.3,0,0,1-.49-.3,8.65,8.65,0,0,1,1.16-2.43l1.38-2.29c.94-1.52,1.89-3,2.9-4.5a.54.54,0,0,1,.92.57Z"/><line class="cls-3" x1="225.11" y1="50.4" x2="219.25" y2="59.82"/><path class="cls-11" d="M225.57,50.68c-.46.8-.94,1.59-1.43,2.38s-1,1.57-1.49,2.34l-1.52,2.32a13.6,13.6,0,0,1-1.74,2.18.17.17,0,0,1-.28-.18,13.6,13.6,0,0,1,1.19-2.53l1.41-2.39c.46-.8,1-1.58,1.44-2.37s1-1.56,1.5-2.33a.54.54,0,0,1,.92.57Z"/><line class="cls-3" x1="238.69" y1="54.09" x2="232.42" y2="64.17"/><path class="cls-11" d="M238.87,54.21a10.27,10.27,0,0,1-1.27,2.71l-1.52,2.54c-1,1.68-2.08,3.36-3.2,5a.54.54,0,0,1-.92-.57c1-1.72,2-3.41,3.06-5.08l1.61-2.49A10.27,10.27,0,0,1,238.5,54a.23.23,0,0,1,.37.23Z"/><line class="cls-3" x1="253.71" y1="55.56" x2="248.36" y2="64.17"/><path class="cls-11" d="M253.92,55.69a11.4,11.4,0,0,1-1.1,2.3l-1.3,2.18c-.88,1.45-1.77,2.88-2.71,4.28a.54.54,0,0,1-.92-.57c.84-1.47,1.73-2.9,2.64-4.32l1.38-2.13a11.4,11.4,0,0,1,1.58-2,.26.26,0,0,1,.43.26Z"/><path class="cls-11" d="M133.49,64.45q-1.51-2.34-2.94-4.73l-1.43-2.39a16.43,16.43,0,0,1-1.27-2.49.26.26,0,0,1,.43-.27A16.43,16.43,0,0,1,130,56.82l1.51,2.34q1.51,2.34,2.94,4.73a.54.54,0,0,1-.92.57Z"/><path class="cls-11" d="M149.17,64.45q-1.51-2.39-3-4.82l-1.45-2.43a22.41,22.41,0,0,1-1.34-2.5.28.28,0,0,1,.48-.3,22.41,22.41,0,0,1,1.65,2.3l1.54,2.38q1.53,2.38,3,4.79a.54.54,0,0,1-.92.57Z"/><line class="cls-12" x1="165.5" y1="64.17" x2="156.93" y2="50.4"/><path class="cls-11" d="M180.78,64.45c-1.09-1.63-2.13-3.3-3.16-5L176.11,57a10.55,10.55,0,0,1-1.31-2.65.28.28,0,0,1,.45-.28,10.55,10.55,0,0,1,1.8,2.35l1.59,2.48c1,1.66,2.08,3.33,3.06,5a.54.54,0,0,1-.92.57Z"/><line class="cls-13" x1="196.99" y1="64.17" x2="188.42" y2="50.4"/><line class="cls-13" x1="233.12" y1="64.17" x2="224.56" y2="50.4"/><path class="cls-11" d="M213.51,81.22c-.85-.46-1.69-.94-2.52-1.43s-1.67-1-2.49-1.49L206,76.78A14.7,14.7,0,0,1,203.71,75a.09.09,0,0,1,.09-.16A14.7,14.7,0,0,1,206.48,76L209,77.4c.85.45,1.69.94,2.53,1.41s1.67,1,2.5,1.47a.54.54,0,0,1-.54.94Z"/><line class="cls-12" x1="199.95" y1="88.82" x2="213.79" y2="80.83"/><path class="cls-11" d="M213.51,97q-2.65-1.46-5.26-3a47.32,47.32,0,0,1-5.1-3.28.29.29,0,0,1,.28-.49A47.29,47.29,0,0,1,208.83,93q2.64,1.48,5.23,3.05a.54.54,0,0,1-.54.94Z"/><line class="cls-12" x1="199.95" y1="104.59" x2="213.79" y2="96.59"/><line class="cls-12" x1="213.79" y1="112.21" x2="199.95" y2="104.21"/><path class="cls-11" d="M199.68,119.81c1.41-.9,2.85-1.74,4.3-2.57l2.19-1.21a7.35,7.35,0,0,1,2.33-1,.25.25,0,0,1,.24.41,7.35,7.35,0,0,1-2,1.54l-2.14,1.29c-1.44.84-2.89,1.68-4.37,2.44a.54.54,0,0,1-.54-.94Z"/><line class="cls-12" x1="213.79" y1="128.11" x2="199.95" y2="120.11"/><line class="cls-12" x1="199.95" y1="136.18" x2="213.79" y2="128.18"/><line class="cls-12" x1="213.79" y1="143.8" x2="199.95" y2="135.8"/><path class="cls-11" d="M199.68,151.4c1.43-.91,2.89-1.75,4.35-2.59l2.22-1.22a7.65,7.65,0,0,1,2.35-1,.25.25,0,0,1,.23.4,7.65,7.65,0,0,1-2,1.54l-2.17,1.31c-1.46.85-2.92,1.7-4.41,2.48a.54.54,0,0,1-.54-.94Z"/><path class="cls-11" d="M209.18,157.2a29.31,29.31,0,0,1-4.85-2.37c-1.57-.87-3.12-1.77-4.65-2.72a.54.54,0,0,1,.54-.94c1.58.85,3.14,1.75,4.67,2.67a29.3,29.3,0,0,1,4.47,3,.2.2,0,0,1-.19.34Z"/><line class="cls-12" x1="199.95" y1="167.71" x2="213.79" y2="159.72"/><line class="cls-12" x1="213.79" y1="175.41" x2="199.95" y2="167.41"/><line class="cls-12" x1="212.56" y1="190.47" x2="199.95" y2="183.18"/><line class="cls-13" x1="249.06" y1="64.17" x2="240.74" y2="50.79"/><polyline class="cls-13" points="215.27 42.74 210.84 21.11 203.29 21.11 198.57 42.67"/><path class="cls-11" d="M200,174.77l6.92.09,3.46,0h1.72l.85,0,.42,0h.28a.5.5,0,0,0-.22.12.49.49,0,0,0-.15.38l.82.47c-1.61,1-3.26,2-4.91,3l-2.49,1.42a9.49,9.49,0,0,1-2.61,1.21.28.28,0,0,1-.27-.45,9.5,9.5,0,0,1,2.32-1.71l2.44-1.5c1.64-1,3.29-1.95,5-2.87l0,0a.53.53,0,0,1,.72.21.54.54,0,0,1,.07.27.61.61,0,0,1-.2.41.6.6,0,0,1-.27.14l-.09,0-.15,0-.24,0-.45,0-.87,0h-1.74l-3.47,0-6.93-.09a.54.54,0,0,1,0-1.08Z"/><path class="cls-11" d="M200,159c2.14-.06,4.28,0,6.41,0l3.21.09a12,12,0,0,1,3.21.39.21.21,0,0,1,.14.26.21.21,0,0,1-.15.14,12,12,0,0,1-3.21.34l-3.21,0c-2.14,0-4.28,0-6.42-.15a.54.54,0,0,1,0-1.08Z"/><path class="cls-12" d="M200,143.85s13.83.24,13.83,0"/><path class="cls-12" d="M200,128.12s13.83.24,13.83,0"/><path class="cls-12" d="M200,112.18s6.49.11,10.58.11l3.34,0"/><path class="cls-12" d="M200,96.45s13.83.24,13.83,0"/><path class="cls-12" d="M200,80.72s13.83.24,13.83,0"/><polyline class="cls-12" points="142.28 50.43 203.29 21.11 212.8 32.07 201.19 32.07 214.98 42.52"/><line class="cls-13" x1="210.84" y1="21.11" x2="256.52" y2="50.4"/><rect class="cls-13" x="115.42" y="64.18" width="25.45" height="8.02"/><circle class="cls-13" cx="128.31" cy="94.11" r="5.35"/><path class="cls-3" d="M128.15,95.93a1.83,1.83,0,1,1,2-1.82"/><path class="cls-11" d="M128.14,96.14a2,2,0,0,1-2-1.29,2.17,2.17,0,0,1,.6-2.46,2.26,2.26,0,0,1,2.46-.31,2.09,2.09,0,0,1,1.17,2,.23.23,0,0,1-.47,0,1.57,1.57,0,0,0-1-1.32,1.4,1.4,0,0,0-1.47.35,1.53,1.53,0,0,0-.39,1.41,1.7,1.7,0,0,0,1.14,1.17h0a.22.22,0,0,1,0,.42Z"/><line class="cls-3" x1="132.18" y1="90.41" x2="132.18" y2="77.73"/><path class="cls-11" d="M131.64,90.41c0-2.11,0-4.23,0-6.34s0-4.23.21-6.34a.3.3,0,0,1,.6,0c.2,2.11.18,4.23.21,6.34s.06,4.23,0,6.34a.54.54,0,0,1-1.08,0Z"/><line class="cls-13" x1="124.03" y1="72.24" x2="124.03" y2="90.94"/><path class="cls-12" d="M132.73,107.88a4.46,4.46,0,1,1-4.52-5.27V99.49"/><polyline class="cls-12" points="116.48 118.5 127.86 109.63 138.79 118.5"/><rect class="cls-10" x="109.92" y="117.81" width="36.82" height="37.59" rx="6.26" ry="6.26"/><rect class="cls-14" x="109.92" y="120.55" width="36.82" height="34.85" rx="6.26" ry="6.26"/><path class="cls-15" d="M146.74,125.81v23a6,6,0,0,1-5.94,6H115.88a6,6,0,0,1-6-6v-2a6,6,0,0,0,5.66,4.1H140.5a6,6,0,0,0,6-5.94V124A5.76,5.76,0,0,1,146.74,125.81Z"/><path class="cls-11" d="M108.37,131.41a2.76,2.76,0,0,1,0-.76,2,2,0,0,1,.2-.76.3.3,0,0,1,.53,0,2,2,0,0,1,.2.76,2.76,2.76,0,0,1,0,.76.45.45,0,0,1-.87,0Z"/><path class="cls-11" d="M108.46,126.4a13.69,13.69,0,0,1-.19-2,6.93,6.93,0,0,1,.22-2.13,6.44,6.44,0,0,1,2.43-3.55,6.56,6.56,0,0,1,4.09-1.26h24.12c.68,0,1.31,0,2,0a6.53,6.53,0,0,1,2.13.48,6.46,6.46,0,0,1,3.9,5,7.33,7.33,0,0,1,.09,1.09V149.1a6.65,6.65,0,0,1-1.2,4.11,6.5,6.5,0,0,1-3.52,2.49,7.05,7.05,0,0,1-2.14.25H118.33c-1.36,0-2.64,0-4.06,0a6.51,6.51,0,0,1-6-5.55,15.15,15.15,0,0,1-.08-2.09v-2a72.55,72.55,0,0,1,.25-8,.31.31,0,0,1,.62,0,72.53,72.53,0,0,1,.25,8v2a14.35,14.35,0,0,0,.06,1.93,5.38,5.38,0,0,0,4.92,4.59c1.26,0,2.66,0,4,0h22.11a5.91,5.91,0,0,0,1.84-.21,5.39,5.39,0,0,0,2.92-2.07,5.52,5.52,0,0,0,1-3.47V124a6.22,6.22,0,0,0-.08-.91,5.37,5.37,0,0,0-3.24-4.12,5.44,5.44,0,0,0-1.77-.4c-.61,0-1.32,0-2,0H115a5.46,5.46,0,0,0-3.45,1.05,5.35,5.35,0,0,0-2,3,6.56,6.56,0,0,0-.2,1.85,13.7,13.7,0,0,1-.19,2,.35.35,0,0,1-.69,0Z"/><rect class="cls-13" x="256.26" y="45.2" width="8.37" height="23.94"/><polyline class="cls-3" points="272.87 62.44 272.87 69.14 264.5 69.14 264.5 45.2 272.87 45.2 272.87 56.08"/><path class="cls-11" d="M273.12,62.44a19.16,19.16,0,0,1,.31,3.35c0,1.12,0,2.24,0,3.35v0a.54.54,0,0,1-.54.52H264.5a.54.54,0,0,1-.54-.54V45.2a.54.54,0,0,1,.54-.54h8.37a.54.54,0,0,1,.54.53h0c0,1.81.06,3.62,0,5.44a51.28,51.28,0,0,1-.24,5.44.34.34,0,0,1-.67,0,51.26,51.26,0,0,1-.24-5.44c0-1.81,0-3.62,0-5.44l.54.54H264.5l.54-.54V69.14l-.54-.54h8.37l-.54.54c-.05-1.12-.05-2.24,0-3.35a19.16,19.16,0,0,1,.31-3.35.26.26,0,0,1,.5,0Z"/><path class="cls-16" d="M197.21,64.3l-6.27-9.87,6.84-11.61H216.5V64.15Z"/><path class="cls-17" d="M213.23,46.3H200.32l-4.6,7.84h17.51S213.33,46.19,213.23,46.3Z"/><path class="cls-12" d="M118.56,133.38a2.64,2.64,0,0,1,5.28,0"/><path class="cls-12" d="M131.2,133.38a2.64,2.64,0,0,1,5.28,0"/><path class="cls-16" d="M131,140a3.47,3.47,0,0,1-6.93,0Z"/><circle class="cls-15" cx="138.15" cy="138.93" r="2.56"/><circle class="cls-15" cx="116.84" cy="138.93" r="2.56"/><rect class="cls-17" x="32.9" y="192.42" width="23.06" height="6.24" rx="1.69" ry="1.69"/><rect class="cls-17" x="35.14" y="186.22" width="23.06" height="6.24" rx="1.69" ry="1.69"/><rect class="cls-3" x="34.27" y="180.65" width="23.06" height="4.23" rx="1.69" ry="1.69"/><rect class="cls-14" x="34.45" y="182.02" width="23.06" height="4.23" rx="1.69" ry="1.69"/><rect class="cls-15" x="36.03" y="187.14" width="21.26" height="1.41"/><rect class="cls-15" x="33.79" y="193.32" width="21.26" height="1.41"/><path class="cls-11" d="M34.49,180.07a2,2,0,0,1,1-.54,4.83,4.83,0,0,1,.93,0H56.17a2,2,0,0,1,1.74,1.24,2.5,2.5,0,0,1,.14,1v2.88a3.61,3.61,0,0,1,0,.48,1.95,1.95,0,0,1-1.4,1.62,2,2,0,0,1-.55.08H35.92a1.92,1.92,0,0,1-1.77-1.13,2.08,2.08,0,0,1-.14-1l.07-.82a.38.38,0,0,1,.76,0l.07.82a1.76,1.76,0,0,0,0,.34.85.85,0,0,0,.1.25.94.94,0,0,0,.88.5H56.08a1,1,0,0,0,.26,0,.89.89,0,0,0,.43-.27A.88.88,0,0,0,57,185a2.75,2.75,0,0,0,0-.34v-2.06a6.47,6.47,0,0,0-.06-1.44.89.89,0,0,0-.79-.56H36.4a5.75,5.75,0,0,0-.71,0,.88.88,0,0,0-.45.24.53.53,0,0,1-.76-.75Z"/><rect class="cls-3" x="59.54" y="174.45" width="23.06" height="4.23" rx="1.69" ry="1.69"/><rect class="cls-14" x="59.73" y="175.82" width="23.06" height="4.23" rx="1.69" ry="1.69"/><path class="cls-11" d="M59.77,173.86a2,2,0,0,1,1-.54,4.84,4.84,0,0,1,.93,0H81.45a2,2,0,0,1,1.74,1.24,2.5,2.5,0,0,1,.14,1v2.88a3.6,3.6,0,0,1,0,.48,1.95,1.95,0,0,1-1.4,1.62,2,2,0,0,1-.55.08H61.19a1.92,1.92,0,0,1-1.77-1.13,2.08,2.08,0,0,1-.14-1l.07-.82a.38.38,0,0,1,.76,0l.07.82a1.76,1.76,0,0,0,0,.34.85.85,0,0,0,.1.25.94.94,0,0,0,.88.5H81.36a1,1,0,0,0,.26,0,.89.89,0,0,0,.43-.27.88.88,0,0,0,.21-.46,2.74,2.74,0,0,0,0-.34v-2.06a6.46,6.46,0,0,0-.06-1.44.89.89,0,0,0-.79-.56H61.68a5.78,5.78,0,0,0-.71,0,.88.88,0,0,0-.45.24.53.53,0,0,1-.76-.75Z"/><rect class="cls-17" x="59.42" y="192.42" width="23.06" height="6.24" rx="1.69" ry="1.69"/><rect class="cls-17" x="61.54" y="186.22" width="23.06" height="6.24" rx="1.69" ry="1.69"/><rect class="cls-17" x="59.42" y="180.02" width="23.06" height="6.24" rx="1.69" ry="1.69"/><rect class="cls-15" x="60.35" y="180.96" width="21.26" height="1.41"/><rect class="cls-15" x="62.4" y="187.04" width="21.26" height="1.41"/><rect class="cls-15" x="60.35" y="193.42" width="21.26" height="1.41"/></g></g></g></svg>