<svg xmlns:xlink="http://www.w3.org/1999/xlink" xmlns="http://www.w3.org/2000/svg" width="108" height="20" viewBox="0 0 108 20" fill="none">
  <path d="M0.707031 1.43652H4.92822C6.85173 1.43652 8.24642 1.71175 9.1123 2.26221C9.98438 2.80648 10.4204 3.67546 10.4204 4.86914C10.4204 5.67936 10.2287 6.34424 9.84521 6.86377C9.46794 7.3833 8.96387 7.69564 8.33301 7.80078V7.89355C9.19271 8.08529 9.8112 8.44401 10.1885 8.96973C10.5719 9.49544 10.7637 10.1943 10.7637 11.0664C10.7637 12.3034 10.3153 13.2682 9.41846 13.9609C8.52783 14.6536 7.31559 15 5.78174 15H0.707031V1.43652ZM3.58301 6.80811H5.25293C6.03223 6.80811 6.59505 6.6875 6.94141 6.44629C7.29395 6.20508 7.47021 5.80615 7.47021 5.24951C7.47021 4.72998 7.27848 4.35889 6.89502 4.13623C6.51774 3.90739 5.91781 3.79297 5.09521 3.79297H3.58301V6.80811ZM3.58301 9.09033V12.625H5.45703C6.2487 12.625 6.83317 12.4735 7.21045 12.1704C7.58773 11.8674 7.77637 11.4035 7.77637 10.7788C7.77637 9.65316 6.97233 9.09033 5.36426 9.09033H3.58301ZM19.6477 15L19.2673 13.6733H19.1188C18.8158 14.1558 18.3859 14.5299 17.8293 14.7959C17.2727 15.0557 16.6387 15.1855 15.9274 15.1855C14.709 15.1855 13.7906 14.8608 13.1721 14.2114C12.5536 13.5558 12.2443 12.6157 12.2443 11.3911V4.62793H15.0739V10.686C15.0739 11.4344 15.2069 11.9972 15.4729 12.3745C15.7388 12.7456 16.1625 12.9312 16.7438 12.9312C17.5355 12.9312 18.1076 12.6683 18.4602 12.1426C18.8127 11.6107 18.989 10.7324 18.989 9.50781V4.62793H21.8186V15H19.6477ZM23.7167 1.94678C23.7167 1.02523 24.23 0.564453 25.2567 0.564453C26.2834 0.564453 26.7968 1.02523 26.7968 1.94678C26.7968 2.3859 26.6669 2.72917 26.4071 2.97656C26.1535 3.21777 25.7701 3.33838 25.2567 3.33838C24.23 3.33838 23.7167 2.87451 23.7167 1.94678ZM26.6669 15H23.8373V4.62793H26.6669V15ZM31.5245 15H28.6949V0.564453H31.5245V15ZM36.8367 15.1855C35.6183 15.1855 34.6596 14.7124 33.9607 13.7661C33.268 12.8198 32.9217 11.5086 32.9217 9.83252C32.9217 8.13167 33.2742 6.80811 33.9793 5.86182C34.6906 4.90934 35.6678 4.43311 36.9109 4.43311C38.216 4.43311 39.2117 4.94027 39.8982 5.95459H39.991C39.8488 5.18148 39.7776 4.49186 39.7776 3.88574V0.564453H42.6165V15H40.4456L39.8982 13.6548H39.7776C39.1344 14.6753 38.1541 15.1855 36.8367 15.1855ZM37.8294 12.9312C38.553 12.9312 39.0818 12.7209 39.4158 12.3003C39.756 11.8797 39.9415 11.1654 39.9725 10.1572V9.85107C39.9725 8.73779 39.7993 7.93994 39.4529 7.45752C39.1128 6.9751 38.5561 6.73389 37.783 6.73389C37.1521 6.73389 36.6604 7.00293 36.3079 7.54102C35.9616 8.07292 35.7884 8.84912 35.7884 9.86963C35.7884 10.8901 35.9646 11.6571 36.3172 12.1704C36.6697 12.6776 37.1738 12.9312 37.8294 12.9312ZM50.5913 15L47.3257 4.35889H47.2422C47.3597 6.5236 47.4185 7.96777 47.4185 8.69141V15H44.8486V1.43652H48.7637L51.9736 11.8086H52.0293L55.4341 1.43652H59.3491V15H56.668V8.58008C56.668 8.27702 56.6711 7.92757 56.6772 7.53174C56.6896 7.1359 56.7329 6.08447 56.8071 4.37744H56.7236L53.2261 15H50.5913ZM60.1154 4.62793H63.2141L65.1716 10.4634C65.3386 10.9705 65.453 11.5705 65.5148 12.2632H65.5705C65.6385 11.6261 65.7715 11.0262 65.9694 10.4634L67.8898 4.62793H70.9235L66.5354 16.3267C66.1333 17.409 65.5581 18.2192 64.8098 18.7573C64.0676 19.2954 63.1986 19.5645 62.2028 19.5645C61.7142 19.5645 61.2349 19.5119 60.7648 19.4067V17.1616C61.105 17.242 61.4761 17.2822 61.8781 17.2822C62.3791 17.2822 62.8151 17.1276 63.1862 16.8184C63.5635 16.5153 63.8573 16.0545 64.0676 15.436L64.2346 14.9258L60.1154 4.62793ZM77.4325 15L74.1669 4.35889H74.0834C74.2009 6.5236 74.2597 7.96777 74.2597 8.69141V15H71.6898V1.43652H75.6049L78.8148 11.8086H78.8705L82.2753 1.43652H86.1903V15H83.5092V8.58008C83.5092 8.27702 83.5123 7.92757 83.5185 7.53174C83.5308 7.1359 83.5741 6.08447 83.6483 4.37744H83.5648L80.0673 15H77.4325ZM90.9088 15L86.9566 4.62793H89.9161L91.92 10.5376C92.1427 11.286 92.2818 11.9941 92.3375 12.6621H92.3932C92.4241 12.0684 92.5633 11.3602 92.8106 10.5376L94.8053 4.62793H97.7647L93.8126 15H90.9088ZM104.005 15.1855C102.786 15.1855 101.831 14.7433 101.138 13.8589H100.99C101.089 14.7248 101.138 15.2257 101.138 15.3618V19.5645H98.3084V4.62793H100.609L101.008 5.97314H101.138C101.8 4.94645 102.78 4.43311 104.079 4.43311C105.304 4.43311 106.262 4.90625 106.955 5.85254C107.648 6.79883 107.994 8.11312 107.994 9.79541C107.994 10.9025 107.83 11.8643 107.502 12.6807C107.181 13.4971 106.72 14.1187 106.12 14.5454C105.52 14.9722 104.815 15.1855 104.005 15.1855ZM103.17 6.69678C102.471 6.69678 101.961 6.91325 101.639 7.34619C101.317 7.77295 101.15 8.48112 101.138 9.4707V9.77686C101.138 10.8901 101.302 11.688 101.63 12.1704C101.964 12.6528 102.489 12.894 103.207 12.894C104.475 12.894 105.109 11.8488 105.109 9.7583C105.109 8.73779 104.951 7.97396 104.636 7.4668C104.326 6.95345 103.838 6.69678 103.17 6.69678Z" fill="url(&quot;#paint0_linear&quot;)"></path>
  <defs>
    <linearGradient id="paint0_linear" x1="-1" y1="-5" x2="28.5267" y2="58.1556" gradientUnits="userSpaceOnUse">
      <stop stop-color="#3672F8"></stop>
      <stop offset="1" stop-color="#B01EFF"></stop>
    </linearGradient>
  <linearGradient id="paint0_linear" x1="-1" y1="-5" x2="28.5267" y2="58.1556" gradientUnits="userSpaceOnUse">
      <stop stop-color="#3672F8"></stop>
      <stop offset="1" stop-color="#B01EFF"></stop>
    </linearGradient></defs>
  </svg>